<?xml version="1.0" standalone="no"?>
<!DOCTYPE svg PUBLIC "-//W3C//DTD SVG 20010904//EN"
 "http://www.w3.org/TR/2001/REC-SVG-20010904/DTD/svg10.dtd">
<svg version="1.0" xmlns="http://www.w3.org/2000/svg"
 width="1500.000000pt" height="1500.000000pt" viewBox="0 0 1500.000000 1500.000000"
 preserveAspectRatio="xMidYMid meet">

<g transform="translate(0.000000,1500.000000) scale(0.100000,-0.100000)"
fill="#000000" stroke="none">
<path d="M2750 9789 c-12 -27 -11 -33 8 -52 21 -20 22 -20 42 -2 28 25 27 71
-2 79 -34 9 -35 8 -48 -25z"/>
<path d="M8175 9390 c-84 -9 -159 -32 -238 -72 -32 -16 -90 -40 -130 -54 -98
-35 -134 -71 -143 -143 -4 -31 -7 -67 -5 -81 5 -49 31 -123 55 -154 17 -23 25
-50 30 -101 18 -193 18 -222 -3 -332 -12 -60 -21 -137 -21 -171 0 -36 -10 -93
-24 -139 -41 -132 -49 -307 -21 -432 14 -62 15 -80 1 -177 -8 -60 -18 -181
-21 -269 -6 -157 -17 -251 -55 -490 -39 -240 -50 -386 -50 -625 0 -390 36
-515 152 -539 63 -12 84 -4 101 42 29 79 30 104 7 137 -34 47 -51 141 -51 275
1 217 12 355 37 455 13 52 27 133 30 180 4 52 17 119 35 173 25 76 29 104 29
200 0 88 4 123 20 165 12 31 20 76 20 113 0 34 5 79 12 101 9 32 9 44 -5 72
-15 33 -15 34 14 62 22 21 29 36 26 54 -2 14 -12 66 -21 117 -17 91 -17 92 8
190 13 54 30 134 36 178 17 121 67 339 100 440 16 50 34 116 39 147 7 39 21
73 43 102 29 39 42 47 106 65 45 13 117 24 185 28 111 6 113 5 172 -25 109
-55 206 -181 220 -283 4 -30 18 -71 31 -92 31 -48 71 -175 119 -382 48 -208
58 -314 38 -392 -9 -35 -13 -79 -10 -110 4 -36 -1 -72 -14 -115 -19 -63 -19
-63 3 -167 19 -91 20 -113 10 -171 -8 -45 -8 -87 -2 -133 9 -61 8 -73 -15
-128 -13 -33 -40 -82 -59 -109 -19 -27 -58 -86 -87 -132 -99 -158 -185 -239
-303 -283 -26 -10 -72 -37 -102 -60 -45 -35 -64 -44 -115 -49 -76 -9 -148 -40
-217 -95 -46 -37 -57 -41 -80 -33 -50 17 -116 -11 -162 -69 -22 -28 -45 -68
-51 -90 -12 -37 -11 -41 16 -69 45 -47 87 -55 218 -41 74 8 135 9 179 3 97
-12 336 19 433 57 73 28 196 108 272 178 47 44 246 366 283 458 13 33 41 95
62 137 35 71 38 85 38 160 0 55 7 105 20 148 22 69 21 145 -1 305 -8 59 -6 84
10 155 11 47 22 123 26 170 4 47 13 113 21 148 18 80 18 178 0 251 -8 31 -17
88 -21 126 -3 39 -11 97 -16 130 -12 66 -96 309 -133 383 -13 26 -31 72 -40
102 -8 30 -44 109 -78 174 -59 112 -69 125 -149 193 -68 58 -96 75 -130 81
-32 5 -47 14 -56 32 -15 29 -87 69 -128 70 -16 0 -95 14 -174 30 -145 30 -197
33 -326 20z"/>
<path d="M4096 9353 c-4 -4 -62 -8 -129 -9 -67 -1 -228 -7 -357 -15 -277 -15
-592 -17 -850 -5 -288 13 -445 -8 -602 -84 -45 -22 -88 -40 -95 -40 -19 0 -89
-66 -115 -108 -19 -31 -23 -51 -23 -119 0 -77 2 -83 30 -113 54 -57 226 -166
300 -190 56 -19 88 -23 160 -21 116 3 264 25 338 50 82 29 206 98 243 137 27
29 49 38 155 64 68 17 166 45 218 61 152 48 480 109 591 109 52 0 157 9 234
20 322 46 561 49 815 11 156 -24 181 -21 181 20 0 55 -18 73 -126 127 -96 48
-110 52 -177 52 -39 0 -119 7 -177 16 -58 8 -175 17 -260 19 -85 3 -177 10
-203 15 -56 12 -141 13 -151 3z"/>
<path d="M11204 9130 c-28 -12 -64 -45 -116 -106 -102 -120 -124 -139 -187
-164 -29 -11 -72 -36 -96 -55 -23 -19 -77 -51 -121 -71 -43 -20 -100 -54 -125
-75 -26 -22 -55 -39 -65 -39 -45 0 -65 -14 -95 -69 -18 -31 -54 -81 -81 -111
-69 -77 -126 -180 -155 -280 -18 -60 -35 -95 -58 -122 -53 -58 -75 -109 -75
-175 0 -42 -6 -65 -20 -83 -12 -15 -20 -41 -20 -64 0 -21 -9 -71 -21 -110 -20
-68 -21 -73 -5 -123 10 -29 25 -95 35 -146 14 -78 15 -102 5 -157 -15 -78 0
-205 40 -345 59 -211 110 -289 320 -497 95 -93 132 -122 256 -196 296 -176
293 -175 555 -211 125 -18 135 -18 242 -1 249 40 405 106 515 217 92 94 213
253 252 332 19 36 64 143 101 236 58 147 70 190 91 317 l24 146 -19 89 c-11
48 -22 119 -26 157 -6 55 -14 80 -41 121 -44 65 -121 261 -135 342 -9 53 -16
65 -50 93 -24 19 -52 57 -71 94 -27 56 -38 67 -92 96 -33 18 -93 53 -132 76
-86 53 -138 58 -196 19 -29 -19 -40 -37 -57 -87 -11 -35 -23 -84 -26 -110 -7
-44 -5 -49 48 -120 30 -40 68 -100 85 -134 21 -42 43 -69 71 -87 57 -38 99
-123 107 -219 4 -40 12 -99 20 -132 12 -53 11 -63 -6 -110 -11 -28 -24 -81
-30 -119 -6 -37 -19 -90 -30 -118 -15 -37 -20 -74 -20 -144 l0 -93 -35 -22
-35 -22 0 -107 0 -107 -46 -38 c-53 -44 -98 -63 -256 -107 -96 -27 -123 -30
-178 -25 -97 10 -182 35 -210 61 -14 13 -41 26 -61 30 -36 7 -38 10 -93 134
-42 94 -71 143 -111 190 -60 68 -59 67 -75 192 -7 56 -24 121 -50 188 -22 56
-40 111 -40 121 0 11 9 59 21 107 11 48 27 145 34 214 18 160 76 323 153 426
27 38 70 111 95 164 24 53 74 136 111 185 75 99 80 102 213 103 91 1 208 58
285 137 74 77 85 124 57 245 -16 66 -27 90 -62 131 -57 68 -143 125 -214 141
-52 13 -62 12 -99 -3z"/>
<path d="M10988 9078 c-2 -31 1 -61 7 -67 10 -10 55 44 55 66 0 19 -5 23 -30
23 -24 0 -30 -5 -32 -22z"/>
<path d="M6025 8951 c-22 -10 -54 -36 -70 -57 -71 -93 -175 -191 -223 -209
-26 -10 -69 -35 -97 -56 -27 -21 -83 -53 -123 -72 -40 -20 -97 -54 -126 -76
-35 -27 -63 -41 -83 -41 -34 0 -51 -17 -81 -76 -12 -23 -44 -66 -71 -96 -69
-76 -133 -188 -160 -283 -15 -51 -35 -94 -55 -120 -55 -67 -76 -118 -76 -183
0 -46 -4 -63 -20 -77 -14 -12 -20 -31 -20 -58 0 -23 -9 -74 -21 -115 l-21 -74
26 -101 c34 -136 41 -201 27 -269 -20 -96 19 -302 91 -483 39 -98 123 -208
275 -356 93 -92 130 -119 268 -201 245 -145 266 -155 390 -177 234 -42 269
-44 400 -23 151 25 301 71 385 120 114 65 316 301 387 452 19 41 62 145 95
230 50 128 65 180 85 299 l24 145 -20 100 c-11 56 -23 128 -26 161 -5 45 -15
74 -41 114 -42 63 -117 251 -134 336 -10 49 -20 69 -55 105 -24 25 -57 71 -75
103 -18 31 -35 57 -39 57 -4 0 -59 32 -124 70 -104 62 -123 70 -168 70 -78 0
-113 -26 -138 -103 -11 -34 -23 -85 -27 -113 -6 -51 -5 -53 48 -126 30 -40 67
-101 82 -134 20 -45 37 -66 67 -84 61 -38 105 -125 114 -228 4 -45 12 -105 19
-134 11 -48 10 -59 -10 -113 -12 -33 -25 -85 -28 -117 -4 -31 -16 -79 -27
-107 -14 -38 -19 -76 -19 -146 l0 -95 -35 -22 -35 -23 0 -107 0 -106 -49 -41
c-52 -44 -100 -63 -270 -111 -94 -27 -109 -29 -172 -20 -114 16 -163 30 -187
53 -13 12 -44 29 -68 37 -45 15 -45 15 -99 139 -41 93 -68 139 -110 186 l-55
63 -15 109 c-11 75 -28 141 -57 216 l-41 108 26 127 c15 70 31 172 37 228 13
133 75 302 148 403 28 38 72 113 97 167 25 54 76 139 114 190 l69 91 104 5
c137 6 225 43 315 130 55 55 62 67 71 118 9 46 7 71 -9 140 -17 73 -25 90 -67
134 -64 70 -136 117 -202 133 -67 16 -66 16 -115 -6z"/>
<path d="M5816 8905 c-4 -14 -4 -36 0 -50 l6 -25 29 21 c45 32 36 79 -16 79
-7 0 -16 -11 -19 -25z"/>
<path d="M3252 8871 c-48 -8 -91 -44 -129 -109 -24 -40 -25 -50 -20 -130 4
-63 12 -103 31 -144 14 -31 34 -92 45 -135 12 -43 30 -103 41 -132 29 -74 39
-273 19 -363 -7 -35 -12 -67 -11 -71 1 -5 4 -267 7 -583 3 -537 12 -762 35
-910 6 -34 10 -131 10 -215 0 -117 5 -173 19 -233 13 -52 17 -98 14 -132 -4
-37 -1 -65 11 -94 14 -36 15 -56 6 -146 -10 -100 -6 -169 10 -179 4 -2 15 4
25 15 21 23 23 76 16 405 -2 105 1 280 7 390 8 144 8 254 0 392 -9 154 -9 218
2 325 8 73 14 185 15 248 1 134 12 280 26 330 6 19 14 94 18 165 7 106 13 137
30 167 20 32 21 41 11 75 -9 30 -9 49 0 79 6 21 15 102 20 179 26 394 33 453
64 500 15 23 15 28 -6 81 -31 78 -145 194 -214 218 -26 9 -50 15 -53 15 -3 -1
-25 -5 -49 -8z"/>
<path d="M8513 8391 c-34 -3 -64 -9 -68 -13 -11 -10 28 -58 43 -53 8 3 30 5
51 5 49 0 80 22 65 46 -13 22 -15 22 -91 15z"/>
<path d="M9957 8145 c-16 -33 -15 -85 1 -85 3 0 23 12 44 26 32 23 37 30 31
53 -9 38 -12 41 -37 41 -16 0 -27 -10 -39 -35z"/>
<path d="M7022 8070 l-23 -19 36 -7 c24 -4 46 -2 62 7 23 12 23 14 7 26 -25
18 -55 16 -82 -7z"/>
<path d="M4781 7969 c-15 -43 -14 -79 2 -79 12 0 87 47 87 55 0 2 -4 15 -10
29 -7 20 -17 26 -39 26 -24 0 -31 -6 -40 -31z"/>
</g>
</svg>
